# xmcd
#
# Track frame offsets:
#	150
#	15391
#	31926
#	51079
#	70334
#	89133
#	103949
#	120188
#	138234
#	156219
#	170996
#	191976
#	206627
#	226311
#	238233
#	263605
#	281135
#
# Disc length: 3985 seconds
#
# Revision: 0
# Processed by: cddbd v1.5.1PL0 Copyright (c) Steve Scherf et al.
# Submitted via: audiograbber 1.83.01
#
DISCID=f90f8f11
DTITLE=Buffett, Jimmy - Boats - Buffett, Jimmy - Boats
DYEAR=1900
DGENRE=Country
TTITLE0=Son Of A Son Of A Sailor
TTITLE1=Havaña Daydreamin'
TTITLE2=Mañana
TTITLE3=Treat Her Like A Lady
TTITLE4=Steamer
TTITLE5=Jolly Mon Sing
TTITLE6=Nautical Wheelers
TTITLE7=Take It Back
TTITLE8=On A Slow Boat To China
TTITLE9=Changes In Latitudes, Changes In Attitudes
TTITLE10=Love And Luck
TTITLE11=The Captain And The Kid
TTITLE12=Tryin' To Reason With Hurricane Season
TTITLE13=Boat Drinks
TTITLE14=One Particular Harbour
TTITLE15=A Pirate Looks At Forty
TTITLE16=Lovely Cruise
EXTD=
EXTT0=
EXTT1=
EXTT2=
EXTT3=
EXTT4=
EXTT5=
EXTT6=
EXTT7=
EXTT8=
EXTT9=
EXTT10=
EXTT11=
EXTT12=
EXTT13=
EXTT14=
EXTT15=
EXTT16=
PLAYORDER=
